solid AudiOptimised02
  facet normal 0.24342879844878643 0.5228836522652104 0.8169058123673588
    outer loop
      vertex 0.32215404510498047 0.15558796283214205 0.21318710179704414
      vertex 0.329866886138916 0.14837596248681292 0.21550500604808498
      vertex 0.3333921432495117 0.1499079633072522 0.21347391842231378
    endloop
  endfacet
  facet normal 0.22501223628292039 0.48778690997822244 0.8434651290817284
    outer loop
      vertex 0.32215404510498047 0.15558796283214205 0.21318710179704414
      vertex 0.3333921432495117 0.1499079633072522 0.21347391842231378
      vertex 0.32927894592285156 0.15792996396614586 0.20993197331813063
    endloop
  endfacet
  facet normal -0.009135437046986898 0.8210730112024742 0.5707500802145037
    outer loop
      vertex 0.32215404510498047 0.15558796283214205 0.21318710179704414
      vertex 0.32927894592285156 0.15792996396614586 0.20993197331813063
      vertex 0.3177170753479004 0.16819896752938795 0.19497407017549007
    endloop
  endfacet
  facet normal -0.003826664926457794 0.8217077305047665 0.5698962732500071
    outer loop
      vertex 0.32215404510498047 0.15558796283214205 0.21318710179704414
      vertex 0.3177170753479004 0.16819896752938795 0.19497407017549007
      vertex 0.3070387840270996 0.1648209647745165 0.19977295878529988
    endloop
  endfacet
  facet normal -0.3508043542411859 0.5386337711780974 0.7660352247722592
    outer loop
      vertex 0.32215404510498047 0.15558796283214205 0.21318710179704414
      vertex 0.3070387840270996 0.1648209647745165 0.19977295878529988
      vertex 0.2991828918457031 0.15405996391188437 0.20374191111841355
    endloop
  endfacet
  facet normal -0.35437201296724463 0.5189356740113613 0.7778986069301816
    outer loop
      vertex 0.32215404510498047 0.15558796283214205 0.21318710179704414
      vertex 0.2991828918457031 0.15405996391188437 0.20374191111841355
      vertex 0.317105770111084 0.1481309621929281 0.2158619186210844
    endloop
  endfacet
  facet normal 0.38437785275953523 0.5306323870721054 0.755435593613465
    outer loop
      vertex 0.33719587326049805 0.15593796412756164 0.20730293132183997
      vertex 0.32927894592285156 0.15792996396614586 0.20993197331813063
      vertex 0.3333921432495117 0.1499079633072522 0.21347391842231378
    endloop
  endfacet
  facet normal 0.46376454088686564 0.473668321498821 0.7487060650378654
    outer loop
      vertex 0.33719587326049805 0.15593796412756164 0.20730293132183997
      vertex 0.3333921432495117 0.1499079633072522 0.21347391842231378
      vertex 0.3373222351074219 0.1486049631939327 0.21186387754535474
    endloop
  endfacet
  facet normal 0.7485572110000627 0.35945424866452813 0.5571846596747145
    outer loop
      vertex 0.33719587326049805 0.15593796412756164 0.20730293132183997
      vertex 0.3373222351074219 0.1486049631939327 0.21186387754535474
      vertex 0.340421199798584 0.143781963195019 0.21081197398859208
    endloop
  endfacet
  facet normal 0.6240133168193406 0.36501459229027255 0.6909209273479067
    outer loop
      vertex 0.33719587326049805 0.15593796412756164 0.20730293132183997
      vertex 0.340421199798584 0.143781963195019 0.21081197398859208
      vertex 0.3434300422668457 0.1485679646367349 0.20556605077235934
    endloop
  endfacet
  facet normal 0.7580708777509265 0.6508865069007747 -0.040930421943190035
    outer loop
      vertex 0.33719587326049805 0.15593796412756164 0.20730293132183997
      vertex 0.3434300422668457 0.1485679646367349 0.20556605077235934
      vertex 0.33726024627685547 0.15469196745268693 0.18868100957953393
    endloop
  endfacet
  facet normal 0.7773708705300711 0.6278124574762255 -0.039319815474920666
    outer loop
      vertex 0.33719587326049805 0.15593796412756164 0.20730293132183997
      vertex 0.33726024627685547 0.15469196745268693 0.18868100957953393
      vertex 0.3287978172302246 0.16532596652962014 0.19116604816200855
    endloop
  endfacet
  facet normal 0.34225452727665406 0.8786077157795215 0.33303201097090607
    outer loop
      vertex 0.33719587326049805 0.15593796412756164 0.20730293132183997
      vertex 0.3287978172302246 0.16532596652962014 0.19116604816200855
      vertex 0.3177170753479004 0.16819896752938795 0.19497407017549007
    endloop
  endfacet
  facet normal 0.33485106442398527 0.8774133566189166 0.3435412148212352
    outer loop
      vertex 0.33719587326049805 0.15593796412756164 0.20730293132183997
      vertex 0.3177170753479004 0.16819896752938795 0.19497407017549007
      vertex 0.32927894592285156 0.15792996396614586 0.20993197331813063
    endloop
  endfacet
  facet normal 0.013583976353429072 0.3190903320662094 0.94762694957895
    outer loop
      vertex 0.3273749351501465 0.14349596230745354 0.21718394888706527
      vertex 0.329866886138916 0.14837596248681292 0.21550500604808498
      vertex 0.32215404510498047 0.15558796283214205 0.21318710179704414
    endloop
  endfacet
  facet normal 0.024030115130448223 0.3230843316992817 0.9460650443691733
    outer loop
      vertex 0.3273749351501465 0.14349596230745354 0.21718394888706527
      vertex 0.32215404510498047 0.15558796283214205 0.21318710179704414
      vertex 0.317105770111084 0.1481309621929281 0.2158619186210844
    endloop
  endfacet
  facet normal 0.34367363199139594 0.9351529230549369 0.08589205536980435
    outer loop
      vertex 0.2663121223449707 0.19560797831148705 0.11933899907183121
      vertex 0.29125499725341797 0.18296497389675057 0.15718806565368748
      vertex 0.30385589599609375 0.17882197138784175 0.15187609903632326
    endloop
  endfacet
  facet normal 0.35620612693077286 0.9318039679871825 0.06970337423912924
    outer loop
      vertex 0.2663121223449707 0.19560797831148705 0.11933899907183121
      vertex 0.30385589599609375 0.17882197138784175 0.15187609903632326
      vertex 0.2801351547241211 0.19079697926320055 0.11301303812871799
    endloop
  endfacet
  facet normal 0.821014131907169 0.43803122522121346 -0.36614811339117936
    outer loop
      vertex 0.2885408401489258 0.1718529809221113 0.10919798014885407
      vertex 0.2801351547241211 0.19079697926320055 0.11301303812871799
      vertex 0.30385589599609375 0.17882197138784175 0.15187609903632326
    endloop
  endfacet
  facet normal 0.770093381264297 0.5251983868170295 -0.3621088767452574
    outer loop
      vertex 0.2885408401489258 0.1718529809221113 0.10919798014885407
      vertex 0.30385589599609375 0.17882197138784175 0.15187609903632326
      vertex 0.31273317337036133 0.16348997346750466 0.14851797085177765
    endloop
  endfacet
  facet normal 0.7724963067862233 0.5253966753988434 -0.35666201014614307
    outer loop
      vertex 0.33726024627685547 0.15469196745268693 0.18868100957953393
      vertex 0.31273317337036133 0.16348997346750466 0.14851797085177765
      vertex 0.30385589599609375 0.17882197138784175 0.15187609903632326
    endloop
  endfacet
  facet normal 0.7301395068804023 0.6381296946086702 -0.24430880735472507
    outer loop
      vertex 0.33726024627685547 0.15469196745268693 0.18868100957953393
      vertex 0.30385589599609375 0.17882197138784175 0.15187609903632326
      vertex 0.3287978172302246 0.16532596652962014 0.19116604816200855
    endloop
  endfacet
  facet normal 0.2930115794978121 0.9459616923940882 0.13892692612704652
    outer loop
      vertex 0.3177170753479004 0.16819896752938795 0.19497407017549007
      vertex 0.3287978172302246 0.16532596652962014 0.19116604816200855
      vertex 0.30385589599609375 0.17882197138784175 0.15187609903632326
    endloop
  endfacet
  facet normal 0.3536965952289276 0.9282581517111043 0.11504574005737335
    outer loop
      vertex 0.3177170753479004 0.16819896752938795 0.19497407017549007
      vertex 0.30385589599609375 0.17882197138784175 0.15187609903632326
      vertex 0.29125499725341797 0.18296497389675057 0.15718806565368748
    endloop
  endfacet
  facet normal -0.4856814609925878 0.5924927632791209 0.6427019868570325
    outer loop
      vertex 0.23100614547729492 0.17119197599824898 0.13567996608700095
      vertex 0.26595020294189453 0.1625799709504621 0.17002594914285085
      vertex 0.27712297439575195 0.17809396942997477 0.164167053507561
    endloop
  endfacet
  facet normal -0.4706513384346949 0.6406166319014367 0.6067105146285908
    outer loop
      vertex 0.23100614547729492 0.17119197599824898 0.13567996608700095
      vertex 0.27712297439575195 0.17809396942997477 0.164167053507561
      vertex 0.24725914001464844 0.19026897650272998 0.12814498842111366
    endloop
  endfacet
  facet normal -0.08260140876020841 0.9213398400478385 0.3798814373083428
    outer loop
      vertex 0.2663121223449707 0.19560797831148705 0.11933899907183121
      vertex 0.24725914001464844 0.19026897650272998 0.12814498842111366
      vertex 0.27712297439575195 0.17809396942997477 0.164167053507561
    endloop
  endfacet
  facet normal -0.12389742517809024 0.9137678175725412 0.38688215725586816
    outer loop
      vertex 0.2663121223449707 0.19560797831148705 0.11933899907183121
      vertex 0.27712297439575195 0.17809396942997477 0.164167053507561
      vertex 0.29125499725341797 0.18296497389675057 0.15718806565368748
    endloop
  endfacet
  facet normal -0.1014928775832408 0.9004492653680137 0.4229542721123384
    outer loop
      vertex 0.3177170753479004 0.16819896752938795 0.19497407017549007
      vertex 0.29125499725341797 0.18296497389675057 0.15718806565368748
      vertex 0.27712297439575195 0.17809396942997477 0.164167053507561
    endloop
  endfacet
  facet normal -0.09754131243593478 0.9029415290470919 0.41854783178314875
    outer loop
      vertex 0.3177170753479004 0.16819896752938795 0.19497407017549007
      vertex 0.27712297439575195 0.17809396942997477 0.164167053507561
      vertex 0.3070387840270996 0.1648209647745165 0.19977295878529988
    endloop
  endfacet
  facet normal -0.4928519824862917 0.5942265062989021 0.6356034790426598
    outer loop
      vertex 0.2991828918457031 0.15405996391188437 0.20374191111841355
      vertex 0.3070387840270996 0.1648209647745165 0.19977295878529988
      vertex 0.27712297439575195 0.17809396942997477 0.164167053507561
    endloop
  endfacet
  facet normal -0.49238247849276284 0.5946320722002674 0.6355880691014739
    outer loop
      vertex 0.2991828918457031 0.15405996391188437 0.20374191111841355
      vertex 0.27712297439575195 0.17809396942997477 0.164167053507561
      vertex 0.26595020294189453 0.1625799709504621 0.17002594914285085
    endloop
  endfacet
  facet normal 0.8939094710219949 0.40849587494583856 -0.1845453271405454
    outer loop
      vertex 0.2885408401489258 0.1718529809221113 0.10919798014885407
      vertex 0.2833747863769531 0.17666998105811682 0.0948369570307499
      vertex 0.27539920806884766 0.19562098302626627 0.09815300492569512
    endloop
  endfacet
  facet normal 0.8929470658358409 0.425693123055286 -0.14639297318723798
    outer loop
      vertex 0.2885408401489258 0.1718529809221113 0.10919798014885407
      vertex 0.27539920806884766 0.19562098302626627 0.09815300492569512
      vertex 0.2801351547241211 0.19079697926320055 0.11301303812871799
    endloop
  endfacet
  facet normal 0.3919569265814768 0.9043888266855129 0.1686731095083149
    outer loop
      vertex 0.2663121223449707 0.19560797831148705 0.11933899907183121
      vertex 0.2801351547241211 0.19079697926320055 0.11301303812871799
      vertex 0.27539920806884766 0.19562098302626627 0.09815300492569512
    endloop
  endfacet
  facet normal 0.27508124444212434 0.9540810597010771 0.11857335483084604
    outer loop
      vertex 0.2663121223449707 0.19560797831148705 0.11933899907183121
      vertex 0.27539920806884766 0.19562098302626627 0.09815300492569512
      vertex 0.2593059539794922 0.1995099802223711 0.10419596286520161
    endloop
  endfacet
  facet normal 0.38413968958331196 0.7474516760080328 0.541989567168612
    outer loop
      vertex 0.25986480712890625 0.2023189839135267 0.09992600578042699
      vertex 0.2593059539794922 0.1995099802223711 0.10419596286520161
      vertex 0.27539920806884766 0.19562098302626627 0.09815300492569512
    endloop
  endfacet
  facet normal 0.29487729087682746 0.46257486564294953 0.8361051829767294
    outer loop
      vertex 0.25986480712890625 0.2023189839135267 0.09992600578042699
      vertex 0.27539920806884766 0.19562098302626627 0.09815300492569512
      vertex 0.27843713760375977 0.19997097899739463 0.09467495540246595
    endloop
  endfacet
  facet normal 0.6310994611685594 0.1652355699589253 0.7578988564004455
    outer loop
      vertex 0.28625917434692383 0.18142498300207782 0.09220493590144652
      vertex 0.27843713760375977 0.19997097899739463 0.09467495540246595
      vertex 0.27539920806884766 0.19562098302626627 0.09815300492569512
    endloop
  endfacet
  facet normal 0.5754923942034095 0.10017512693720286 0.8116485989374604
    outer loop
      vertex 0.28625917434692383 0.18142498300207782 0.09220493590144652
      vertex 0.27539920806884766 0.19562098302626627 0.09815300492569512
      vertex 0.2833747863769531 0.17666998105811682 0.0948369570307499
    endloop
  endfacet
  facet normal -0.02807459521503406 0.9647712684158803 0.2615878757563607
    outer loop
      vertex 0.2663121223449707 0.19560797831148705 0.11933899907183121
      vertex 0.2593059539794922 0.1995099802223711 0.10419596286520161
      vertex 0.2322978973388672 0.1962059777654272 0.11348296202936514
    endloop
  endfacet
  facet normal -0.057154729507807873 0.9037330338965808 0.42426399840072565
    outer loop
      vertex 0.2663121223449707 0.19560797831148705 0.11933899907183121
      vertex 0.2322978973388672 0.1962059777654272 0.11348296202936514
      vertex 0.24725914001464844 0.19026897650272998 0.12814498842111366
    endloop
  endfacet
  facet normal -0.4126182641896567 0.6164268015030238 0.6706445902606435
    outer loop
      vertex 0.23100614547729492 0.17119197599824898 0.13567996608700095
      vertex 0.24725914001464844 0.19026897650272998 0.12814498842111366
      vertex 0.2322978973388672 0.1962059777654272 0.11348296202936514
    endloop
  endfacet
  facet normal -0.26027556663460527 0.6483433190141513 0.7154771625305378
    outer loop
      vertex 0.23100614547729492 0.17119197599824898 0.13567996608700095
      vertex 0.2322978973388672 0.1962059777654272 0.11348296202936514
      vertex 0.20794916152954102 0.17740197760446758 0.12166500776341138
    endloop
  endfacet
  facet normal -0.09291525855434167 0.4959765033885089 0.8633504866589746
    outer loop
      vertex 0.19275712966918945 0.18191397912212176 0.11743796630032866
      vertex 0.20794916152954102 0.17740197760446758 0.12166500776341138
      vertex 0.2322978973388672 0.1962059777654272 0.11348296202936514
    endloop
  endfacet
  facet normal -0.1363819073394382 0.5962477849775722 0.7911311865043593
    outer loop
      vertex 0.19275712966918945 0.18191397912212176 0.11743796630032866
      vertex 0.2322978973388672 0.1962059777654272 0.11348296202936514
      vertex 0.2250080108642578 0.2003619831179544 0.1090940342930733
    endloop
  endfacet
  facet normal 0.10811820468654336 0.8052762275976059 0.5829585329005206
    outer loop
      vertex 0.25986480712890625 0.2023189839135267 0.09992600578042699
      vertex 0.2250080108642578 0.2003619831179544 0.1090940342930733
      vertex 0.2322978973388672 0.1962059777654272 0.11348296202936514
    endloop
  endfacet
  facet normal 0.08991053440547837 0.8266059325965042 0.5555526329693569
    outer loop
      vertex 0.25986480712890625 0.2023189839135267 0.09992600578042699
      vertex 0.2322978973388672 0.1962059777654272 0.11348296202936514
      vertex 0.2593059539794922 0.1995099802223711 0.10419596286520161
    endloop
  endfacet
  facet normal 0.8083380808743743 0.2687399911969805 0.5238018367090558
    outer loop
      vertex 0.28625917434692383 0.18142498300207782 0.09220493590144652
      vertex 0.28621912002563477 0.18959898212052456 0.08807302404804052
      vertex 0.27803897857666016 0.21052598632922376 0.08995999130178278
    endloop
  endfacet
  facet normal 0.8032545732578369 0.2679342551399341 0.5319711697667261
    outer loop
      vertex 0.28625917434692383 0.18142498300207782 0.09220493590144652
      vertex 0.27803897857666016 0.21052598632922376 0.08995999130178278
      vertex 0.27843713760375977 0.19997097899739463 0.09467495540246595
    endloop
  endfacet
  facet normal 0.29583471552005636 0.3988853409739591 0.8679702217525989
    outer loop
      vertex 0.25986480712890625 0.2023189839135267 0.09992600578042699
      vertex 0.27843713760375977 0.19997097899739463 0.09467495540246595
      vertex 0.27803897857666016 0.21052598632922376 0.08995999130178278
    endloop
  endfacet
  facet normal 0.2213965835533268 0.5151808010365913 0.8279929317537749
    outer loop
      vertex 0.25986480712890625 0.2023189839135267 0.09992600578042699
      vertex 0.27803897857666016 0.21052598632922376 0.08995999130178278
      vertex 0.2576150894165039 0.21168498297347585 0.09469999126172568
    endloop
  endfacet
  facet normal 0.21542076019772713 0.5784193936394872 0.7867813553571037
    outer loop
      vertex 0.25114011764526367 0.2246599840837475 0.08693398499854688
      vertex 0.2576150894165039 0.21168498297347585 0.09469999126172568
      vertex 0.27803897857666016 0.21052598632922376 0.08995999130178278
    endloop
  endfacet
  facet normal 0.16502687981209663 0.4965178539402272 0.8521949012157224
    outer loop
      vertex 0.25114011764526367 0.2246599840837475 0.08693398499854688
      vertex 0.27803897857666016 0.21052598632922376 0.08995999130178278
      vertex 0.27545881271362305 0.22443298799039582 0.08235694428926199
    endloop
  endfacet
  facet normal 0.8965338937366641 0.3286888240583952 0.296969079738085
    outer loop
      vertex 0.2850527763366699 0.19966298170514868 0.08080900762889764
      vertex 0.27545881271362305 0.22443298799039582 0.08235694428926199
      vertex 0.27803897857666016 0.21052598632922376 0.08995999130178278
    endloop
  endfacet
  facet normal 0.8963796239925488 0.32301065024141634 0.30359131990489197
    outer loop
      vertex 0.2850527763366699 0.19966298170514868 0.08080900762889764
      vertex 0.27803897857666016 0.21052598632922376 0.08995999130178278
      vertex 0.28621912002563477 0.18959898212052456 0.08807302404804052
    endloop
  endfacet
  facet normal 0.14007310383100552 0.5078993239264458 0.8499516470589417
    outer loop
      vertex 0.25986480712890625 0.2023189839135267 0.09992600578042699
      vertex 0.2576150894165039 0.21168498297347585 0.09469999126172568
      vertex 0.21815204620361328 0.20719097752484616 0.103889000196002
    endloop
  endfacet
  facet normal 0.14788643178363414 0.6891485970251054 0.709368602711336
    outer loop
      vertex 0.25986480712890625 0.2023189839135267 0.09992600578042699
      vertex 0.21815204620361328 0.20719097752484616 0.103889000196002
      vertex 0.2250080108642578 0.2003619831179544 0.1090940342930733
    endloop
  endfacet
  facet normal -0.09402983148133831 0.5420735952245008 0.8350536558521107
    outer loop
      vertex 0.19275712966918945 0.18191397912212176 0.11743796630032866
      vertex 0.2250080108642578 0.2003619831179544 0.1090940342930733
      vertex 0.21815204620361328 0.20719097752484616 0.103889000196002
    endloop
  endfacet
  facet normal -0.16502491812306894 0.5896017446171619 0.7906557779102569
    outer loop
      vertex 0.19275712966918945 0.18191397912212176 0.11743796630032866
      vertex 0.21815204620361328 0.20719097752484616 0.103889000196002
      vertex 0.18141603469848633 0.18542997969914185 0.11244893889616803
    endloop
  endfacet
  facet normal -0.15593710724458895 0.578256054420939 0.8008143068837603
    outer loop
      vertex 0.15959405899047852 0.18900397962074747 0.10561896244292424
      vertex 0.18141603469848633 0.18542997969914185 0.11244893889616803
      vertex 0.21815204620361328 0.20719097752484616 0.103889000196002
    endloop
  endfacet
  facet normal -0.13126160895943115 0.5038431650842892 0.8537636997502455
    outer loop
      vertex 0.15959405899047852 0.18900397962074747 0.10561896244292424
      vertex 0.21815204620361328 0.20719097752484616 0.103889000196002
      vertex 0.2037677764892578 0.21590498407403524 0.09653498054330645
    endloop
  endfacet
  facet normal 0.026549725871904926 0.6699582950291436 0.741923847155333
    outer loop
      vertex 0.25114011764526367 0.2246599840837475 0.08693398499854688
      vertex 0.2037677764892578 0.21590498407403524 0.09653498054330645
      vertex 0.21815204620361328 0.20719097752484616 0.103889000196002
    endloop
  endfacet
  facet normal 0.12802290077318368 0.5556041354927461 0.8215316071223174
    outer loop
      vertex 0.25114011764526367 0.2246599840837475 0.08693398499854688
      vertex 0.21815204620361328 0.20719097752484616 0.103889000196002
      vertex 0.2576150894165039 0.21168498297347585 0.09469999126172568
    endloop
  endfacet
  facet normal 0.8825030457042841 0.37273392498295743 0.2868061984850769
    outer loop
      vertex 0.2850527763366699 0.19966298170514868 0.08080900762889764
      vertex 0.2845578193664551 0.2100899892537641 0.06878103043057826
      vertex 0.27194786071777344 0.2388409897817965 0.07021703021664094
    endloop
  endfacet
  facet normal 0.9254415000912194 0.3492651943675357 0.1468735984182348
    outer loop
      vertex 0.2850527763366699 0.19966298170514868 0.08080900762889764
      vertex 0.27194786071777344 0.2388409897817965 0.07021703021664094
      vertex 0.27545881271362305 0.22443298799039582 0.08235694428926199
    endloop
  endfacet
  facet normal 0.14521189889075536 0.657974407618579 0.7389067487440625
    outer loop
      vertex 0.25114011764526367 0.2246599840837475 0.08693398499854688
      vertex 0.27545881271362305 0.22443298799039582 0.08235694428926199
      vertex 0.27194786071777344 0.2388409897817965 0.07021703021664094
    endloop
  endfacet
  facet normal 0.09234473728062155 0.6996701758509793 0.7084730725449152
    outer loop
      vertex 0.25114011764526367 0.2246599840837475 0.08693398499854688
      vertex 0.27194786071777344 0.2388409897817965 0.07021703021664094
      vertex 0.2390289306640625 0.23829798323089008 0.07504405268066439
    endloop
  endfacet
  facet normal 0.0690075731165033 0.8234069237738951 0.5632397293637774
    outer loop
      vertex 0.22627592086791992 0.2509399895831776 0.05812503790223511
      vertex 0.2390289306640625 0.23829798323089008 0.07504405268066439
      vertex 0.27194786071777344 0.2388409897817965 0.07021703021664094
    endloop
  endfacet
  facet normal 0.06278513861747084 0.814054752110806 0.5773845225970291
    outer loop
      vertex 0.22627592086791992 0.2509399895831776 0.05812503790223511
      vertex 0.27194786071777344 0.2388409897817965 0.07021703021664094
      vertex 0.26766204833984375 0.2516149907217669 0.052673001154601495
    endloop
  endfacet
  facet normal 0.8995841905218812 0.4271133705342986 0.09122747872172506
    outer loop
      vertex 0.28313398361206055 0.21933499289183453 0.05123604711927565
      vertex 0.26766204833984375 0.2516149907217669 0.052673001154601495
      vertex 0.27194786071777344 0.2388409897817965 0.07021703021664094
    endloop
  endfacet
  facet normal 0.9100832314043577 0.3925138142836674 0.13297149135468558
    outer loop
      vertex 0.28313398361206055 0.21933499289183453 0.05123604711927565
      vertex 0.27194786071777344 0.2388409897817965 0.07021703021664094
      vertex 0.2845578193664551 0.2100899892537641 0.06878103043057826
    endloop
  endfacet
  facet normal -0.0031432771067997113 0.6555569494788069 0.7551391963069264
    outer loop
      vertex 0.25114011764526367 0.2246599840837475 0.08693398499854688
      vertex 0.2390289306640625 0.23829798323089008 0.07504405268066439
      vertex 0.17389392852783203 0.22571798163169604 0.08569397014100932
    endloop
  endfacet
  facet normal -0.0006462376631133446 0.740497073080387 0.6720592735289522
    outer loop
      vertex 0.25114011764526367 0.2246599840837475 0.08693398499854688
      vertex 0.17389392852783203 0.22571798163169604 0.08569397014100932
      vertex 0.2037677764892578 0.21590498407403524 0.09653498054330645
    endloop
  endfacet
  facet normal -0.13860463164587192 0.5135470983856049 0.8467928517801967
    outer loop
      vertex 0.15959405899047852 0.18900397962074747 0.10561896244292424
      vertex 0.2037677764892578 0.21590498407403524 0.09653498054330645
      vertex 0.17389392852783203 0.22571798163169604 0.08569397014100932
    endloop
  endfacet
  facet normal -0.1265659500815657 0.5107840158633311 0.8503415486841032
    outer loop
      vertex 0.15959405899047852 0.18900397962074747 0.10561896244292424
      vertex 0.17389392852783203 0.22571798163169604 0.08569397014100932
      vertex 0.11296319961547852 0.19368598193617292 0.09586597439041156
    endloop
  endfacet
  facet normal -0.14967727702114844 0.5463951166718334 0.8240443490618135
    outer loop
      vertex 0.0656280517578125 0.20058598167429742 0.08269299139133413
      vertex 0.11296319961547852 0.19368598193617292 0.09586597439041156
      vertex 0.17389392852783203 0.22571798163169604 0.08569397014100932
    endloop
  endfacet
  facet normal -0.16338664128065217 0.6113966526059575 0.7742731679667438
    outer loop
      vertex 0.0656280517578125 0.20058598167429742 0.08269299139133413
      vertex 0.17389392852783203 0.22571798163169604 0.08569397014100932
      vertex 0.1433730125427246 0.23661598557502483 0.07064797143586787
    endloop
  endfacet
  facet normal -0.03743215894635568 0.7717004585391383 0.6348836395490899
    outer loop
      vertex 0.22627592086791992 0.2509399895831776 0.05812503790223511
      vertex 0.1433730125427246 0.23661598557502483 0.07064797143586787
      vertex 0.17389392852783203 0.22571798163169604 0.08569397014100932
    endloop
  endfacet
  facet normal -0.04939832762002066 0.7818838477858311 0.6214639601778758
    outer loop
      vertex 0.22627592086791992 0.2509399895831776 0.05812503790223511
      vertex 0.17389392852783203 0.22571798163169604 0.08569397014100932
      vertex 0.2390289306640625 0.23829798323089008 0.07504405268066439
    endloop
  endfacet
  facet normal 0.9031768257747126 0.42801984097863155 -0.032720591561600475
    outer loop
      vertex 0.28313398361206055 0.21933499289183453 0.05123604711927565
      vertex 0.27918291091918945 0.22585198981696347 0.027424946267576855
      vertex 0.2627577781677246 0.2606209882057296 0.028862019917702098
    endloop
  endfacet
  facet normal 0.9011721406258664 0.4329091750058194 -0.021872794873414318
    outer loop
      vertex 0.28313398361206055 0.21933499289183453 0.05123604711927565
      vertex 0.2627577781677246 0.2606209882057296 0.028862019917702098
      vertex 0.26766204833984375 0.2516149907217669 0.052673001154601495
    endloop
  endfacet
  facet normal 0.030574088705365467 0.93696278758931 0.3480890112783025
    outer loop
      vertex 0.22627592086791992 0.2509399895831776 0.05812503790223511
      vertex 0.26766204833984375 0.2516149907217669 0.052673001154601495
      vertex 0.2627577781677246 0.2606209882057296 0.028862019917702098
    endloop
  endfacet
  facet normal 0.0606319062205936 0.9226556219009204 0.3808285379572842
    outer loop
      vertex 0.22627592086791992 0.2509399895831776 0.05812503790223511
      vertex 0.2627577781677246 0.2606209882057296 0.028862019917702098
      vertex 0.2178797721862793 0.2609239873729676 0.03527297634981852
    endloop
  endfacet
  facet normal 0.05022047281861402 0.9505029206981047 0.30663023636661685
    outer loop
      vertex 0.21166181564331055 0.2695809999885787 0.00945606034079094
      vertex 0.2178797721862793 0.2609239873729676 0.03527297634981852
      vertex 0.2627577781677246 0.2606209882057296 0.028862019917702098
    endloop
  endfacet
  facet normal 0.07827348386936653 0.9674637229109524 0.2405976030101545
    outer loop
      vertex 0.21166181564331055 0.2695809999885787 0.00945606034079094
      vertex 0.2627577781677246 0.2606209882057296 0.028862019917702098
      vertex 0.25754404067993164 0.26774400096620204 0.0019159532681292113
    endloop
  endfacet
  facet normal 0.9098172703046538 0.40943205920135584 -0.06780799033687648
    outer loop
      vertex 0.2739691734313965 0.23100699876796443 0.00047899850666488497
      vertex 0.25754404067993164 0.26774400096620204 0.0019159532681292113
      vertex 0.2627577781677246 0.2606209882057296 0.028862019917702098
    endloop
  endfacet
  facet normal 0.8988794666903707 0.42843817564793546 -0.09195887129529019
    outer loop
      vertex 0.2739691734313965 0.23100699876796443 0.00047899850666488497
      vertex 0.2627577781677246 0.2606209882057296 0.028862019917702098
      vertex 0.27918291091918945 0.22585198981696347 0.027424946267576855
    endloop
  endfacet
  facet normal -0.05274392792469762 0.9078304169290738 0.41600722609764623
    outer loop
      vertex 0.22627592086791992 0.2509399895831776 0.05812503790223511
      vertex 0.2178797721862793 0.2609239873729676 0.03527297634981852
      vertex 0.12704801559448242 0.24858799151378685 0.05067696031720237
    endloop
  endfacet
  facet normal -0.06099107971599794 0.833324744041245 0.5494087359732011
    outer loop
      vertex 0.22627592086791992 0.2509399895831776 0.05812503790223511
      vertex 0.12704801559448242 0.24858799151378685 0.05067696031720237
      vertex 0.1433730125427246 0.23661598557502483 0.07064797143586787
    endloop
  endfacet
  facet normal -0.24102608942347284 0.7328067040981585 0.6363181269192494
    outer loop
      vertex 0.0656280517578125 0.20058598167429742 0.08269299139133413
      vertex 0.1433730125427246 0.23661598557502483 0.07064797143586787
      vertex 0.12704801559448242 0.24858799151378685 0.05067696031720237
    endloop
  endfacet
  facet normal -0.1905122905656434 0.7016775041978173 0.6865520717659761
    outer loop
      vertex 0.0656280517578125 0.20058598167429742 0.08269299139133413
      vertex 0.12704801559448242 0.24858799151378685 0.05067696031720237
      vertex 0.04169321060180664 0.2108109899068013 0.06560100353998743
    endloop
  endfacet
  facet normal -0.22620680189841336 0.7544922026981441 0.6160941477100674
    outer loop
      vertex 0.029456138610839844 0.22269699364352588 0.046551957052696435
      vertex 0.04169321060180664 0.2108109899068013 0.06560100353998743
      vertex 0.12704801559448242 0.24858799151378685 0.05067696031720237
    endloop
  endfacet
  facet normal -0.23637687669847135 0.8040698211410916 0.54552515514173
    outer loop
      vertex 0.029456138610839844 0.22269699364352588 0.046551957052696435
      vertex 0.12704801559448242 0.24858799151378685 0.05067696031720237
      vertex 0.11782121658325195 0.2610959926219626 0.028242966154452764
    endloop
  endfacet
  facet normal 0.017165078829464785 0.8762753785756717 0.4815047465714552
    outer loop
      vertex 0.21166181564331055 0.2695809999885787 0.00945606034079094
      vertex 0.11782121658325195 0.2610959926219626 0.028242966154452764
      vertex 0.12704801559448242 0.24858799151378685 0.05067696031720237
    endloop
  endfacet
  facet normal -0.07132598457791177 0.9403967045326335 0.33251562674279606
    outer loop
      vertex 0.21166181564331055 0.2695809999885787 0.00945606034079094
      vertex 0.12704801559448242 0.24858799151378685 0.05067696031720237
      vertex 0.2178797721862793 0.2609239873729676 0.03527297634981852
    endloop
  endfacet
  facet normal -0.09284738339341032 -0.07798569522327307 0.9926215768043428
    outer loop
      vertex 0.31542396545410156 0.13477296242941117 0.21675407876778774
      vertex 0.317105770111084 0.12141496272376706 0.21586191426849455
      vertex 0.3273749351501465 0.1260159623852376 0.21718394603921087
    endloop
  endfacet
  facet normal -0.08853908783597654 -0.07206474700723642 0.9934623808499022
    outer loop
      vertex 0.31542396545410156 0.13477296242941117 0.21675407876778774
      vertex 0.3273749351501465 0.1260159623852376 0.21718394603921087
      vertex 0.32654523849487305 0.1347559622551026 0.21774399270544764
    endloop
  endfacet
  facet normal -0.08832065704041982 0.07204502346445144 0.9934832540782735
    outer loop
      vertex 0.31542396545410156 0.13477296242941117 0.21675407876778774
      vertex 0.32654523849487305 0.1347559622551026 0.21774399270544764
      vertex 0.3273749351501465 0.14349596230745354 0.21718394888706527
    endloop
  endfacet
  facet normal -0.09260538700951061 0.07795656614970607 0.9926464708500026
    outer loop
      vertex 0.31542396545410156 0.13477296242941117 0.21675407876778774
      vertex 0.3273749351501465 0.14349596230745354 0.21718394888706527
      vertex 0.317105770111084 0.1481309621929281 0.2158619186210844
    endloop
  endfacet
  facet normal -0.5278027418993537 0.12258562680589721 0.8404742885681451
    outer loop
      vertex 0.31542396545410156 0.13477296242941117 0.21675407876778774
      vertex 0.317105770111084 0.1481309621929281 0.2158619186210844
      vertex 0.2991828918457031 0.15405996391188437 0.20374191111841355
    endloop
  endfacet
  facet normal -0.5223572643210206 0.128833432231094 0.8429382155001727
    outer loop
      vertex 0.31542396545410156 0.13477296242941117 0.21675407876778774
      vertex 0.2991828918457031 0.15405996391188437 0.20374191111841355
      vertex 0.29656410217285156 0.13478596431639497 0.2050648926737142
    endloop
  endfacet
  facet normal -0.5224664453330942 -0.12911503160221396 0.8428274569064301
    outer loop
      vertex 0.31542396545410156 0.13477296242941117 0.21675407876778774
      vertex 0.29656410217285156 0.13478596431639497 0.2050648926737142
      vertex 0.29925107955932617 0.1155119637491396 0.20377790604358959
    endloop
  endfacet
  facet normal -0.5281446637571615 -0.12261432293090845 0.8402552838019108
    outer loop
      vertex 0.31542396545410156 0.13477296242941117 0.21675407876778774
      vertex 0.29925107955932617 0.1155119637491396 0.20377790604358959
      vertex 0.317105770111084 0.12141496272376706 0.21586191426849455
    endloop
  endfacet
  facet normal 0.22429381063560824 -0.48926095461671526 0.8428024708068306
    outer loop
      vertex 0.32215404510498047 0.11395796295611971 0.21318709501465438
      vertex 0.32927894592285156 0.11161696312321696 0.20993196577278317
      vertex 0.3333921432495117 0.11960396259432103 0.21347391348516354
    endloop
  endfacet
  facet normal 0.2425239469422508 -0.5242023585300664 0.8163296040638659
    outer loop
      vertex 0.32215404510498047 0.11395796295611971 0.21318709501465438
      vertex 0.3333921432495117 0.11960396259432103 0.21347391348516354
      vertex 0.329866886138916 0.12113596275294766 0.21550500161012476
    endloop
  endfacet
  facet normal 0.012628684537697743 -0.31953184978885874 0.9474913790095177
    outer loop
      vertex 0.32215404510498047 0.11395796295611971 0.21318709501465438
      vertex 0.329866886138916 0.12113596275294766 0.21550500161012476
      vertex 0.3273749351501465 0.1260159623852376 0.21718394603921087
    endloop
  endfacet
  facet normal 0.023205652570986578 -0.32358840867959354 0.945913336123856
    outer loop
      vertex 0.32215404510498047 0.11395796295611971 0.21318709501465438
      vertex 0.3273749351501465 0.1260159623852376 0.21718394603921087
      vertex 0.317105770111084 0.12141496272376706 0.21586191426849455
    endloop
  endfacet
  facet normal -0.3547030735288657 -0.5190730890099102 0.7776560022882135
    outer loop
      vertex 0.32215404510498047 0.11395796295611971 0.21318709501465438
      vertex 0.317105770111084 0.12141496272376706 0.21586191426849455
      vertex 0.29925107955932617 0.1155119637491396 0.20377790604358959
    endloop
  endfacet
  facet normal -0.35129554697541393 -0.5380366329883947 0.7662297437699453
    outer loop
      vertex 0.32215404510498047 0.11395796295611971 0.21318709501465438
      vertex 0.29925107955932617 0.1155119637491396 0.20377790604358959
      vertex 0.3073110580444336 0.10475096602480638 0.1999169538204293
    endloop
  endfacet
  facet normal -0.005074670392182274 -0.8189349630784433 0.573863898470813
    outer loop
      vertex 0.32215404510498047 0.11395796295611971 0.21318709501465438
      vertex 0.3073110580444336 0.10475096602480638 0.1999169538204293
      vertex 0.31812286376953125 0.10137296668421567 0.1951919738694481
    endloop
  endfacet
  facet normal -0.006724408095853101 -0.8187531513615665 0.5741063137357613
    outer loop
      vertex 0.32215404510498047 0.11395796295611971 0.21318709501465438
      vertex 0.31812286376953125 0.10137296668421567 0.1951919738694481
      vertex 0.32927894592285156 0.11161696312321696 0.20993196577278317
    endloop
  endfacet
  facet normal 0.6247709707436644 -0.36593153314587606 0.6897502063541031
    outer loop
      vertex 0.33719587326049805 0.11360796357800682 0.20730292442540543
      vertex 0.3434300422668457 0.12097796456610341 0.2055660462773763
      vertex 0.340421199798584 0.1257289633334806 0.21081197104738436
    endloop
  endfacet
  facet normal 0.7492167057825946 -0.3602600942498909 0.5557760270714606
    outer loop
      vertex 0.33719587326049805 0.11360796357800682 0.20730292442540543
      vertex 0.340421199798584 0.1257289633334806 0.21081197104738436
      vertex 0.3373222351074219 0.1209069632322585 0.21186387303277643
    endloop
  endfacet
  facet normal 0.4638536223031664 -0.4752251986557094 0.7476635791844303
    outer loop
      vertex 0.33719587326049805 0.11360796357800682 0.20730292442540543
      vertex 0.3373222351074219 0.1209069632322585 0.21186387303277643
      vertex 0.3333921432495117 0.11960396259432103 0.21347391348516354
    endloop
  endfacet
  facet normal 0.3843471580587745 -0.5323978361268257 0.7542080655758177
    outer loop
      vertex 0.33719587326049805 0.11360796357800682 0.20730292442540543
      vertex 0.3333921432495117 0.11960396259432103 0.21347391348516354
      vertex 0.32927894592285156 0.11161696312321696 0.20993196577278317
    endloop
  endfacet
  facet normal 0.33658122070240676 -0.8733126526161941 0.3521904210096359
    outer loop
      vertex 0.33719587326049805 0.11360796357800682 0.20730292442540543
      vertex 0.32927894592285156 0.11161696312321696 0.20993196577278317
      vertex 0.31812286376953125 0.10137296668421567 0.1951919738694481
    endloop
  endfacet
  facet normal 0.3486089274033703 -0.8752691086880492 0.3352250037081064
    outer loop
      vertex 0.33719587326049805 0.11360796357800682 0.20730292442540543
      vertex 0.31812286376953125 0.10137296668421567 0.1951919738694481
      vertex 0.3290691375732422 0.10424596707419104 0.1913100430325878
    endloop
  endfacet
  facet normal 0.784884883275927 -0.6185510734125078 -0.036746286685440874
    outer loop
      vertex 0.33719587326049805 0.11360796357800682 0.20730292442540543
      vertex 0.3290691375732422 0.10424596707419104 0.1913100430325878
      vertex 0.3373289108276367 0.11488096721904881 0.18871605062462482
    endloop
  endfacet
  facet normal 0.7583359371249258 -0.65068800060357 -0.039137352176523865
    outer loop
      vertex 0.33719587326049805 0.11360796357800682 0.20730292442540543
      vertex 0.3373289108276367 0.11488096721904881 0.18871605062462482
      vertex 0.3434300422668457 0.12097796456610341 0.2055660462773763
    endloop
  endfacet
  facet normal 0.8209445196292369 0.1000835207048921 0.5621684663639851
    outer loop
      vertex 0.34550905227661133 0.13477296434667901 0.20498597612191372
      vertex 0.3434300422668457 0.1485679646367349 0.20556605077235934
      vertex 0.340421199798584 0.143781963195019 0.21081197398859208
    endloop
  endfacet
  facet normal 0.8016454894739042 0.06870368584574842 0.5938386251814152
    outer loop
      vertex 0.34550905227661133 0.13477296434667901 0.20498597612191372
      vertex 0.340421199798584 0.143781963195019 0.21081197398859208
      vertex 0.34145402908325195 0.13475596344149438 0.21046197404394862
    endloop
  endfacet
  facet normal 0.8018480855303378 -0.06873017244252932 0.5935619690709236
    outer loop
      vertex 0.34550905227661133 0.13477296434667901 0.20498597612191372
      vertex 0.34145402908325195 0.13475596344149438 0.21046197404394862
      vertex 0.340421199798584 0.1257289633334806 0.21081197104738436
    endloop
  endfacet
  facet normal 0.8212391553208152 -0.10014668715849748 0.561726704740955
    outer loop
      vertex 0.34550905227661133 0.13477296434667901 0.20498597612191372
      vertex 0.340421199798584 0.1257289633334806 0.21081197104738436
      vertex 0.3434300422668457 0.12097796456610341 0.2055660462773763
    endloop
  endfacet
  facet normal 0.9455489906573639 -0.1545462765705971 -0.28644817099259895
    outer loop
      vertex 0.34550905227661133 0.13477296434667901 0.20498597612191372
      vertex 0.3434300422668457 0.12097796456610341 0.2055660462773763
      vertex 0.3373289108276367 0.11488096721904881 0.18871605062462482
    endloop
  endfacet
  facet normal 0.9434211957054338 -0.14342642671979286 -0.2989737573970689
    outer loop
      vertex 0.34550905227661133 0.13477296434667901 0.20498597612191372
      vertex 0.3373289108276367 0.11488096721904881 0.18871605062462482
      vertex 0.34008121490478516 0.1347859671207279 0.1878520249368978
    endloop
  endfacet
  facet normal 0.9431129232345383 0.14609029842806812 -0.2986563890714569
    outer loop
      vertex 0.34550905227661133 0.13477296434667901 0.20498597612191372
      vertex 0.34008121490478516 0.1347859671207279 0.1878520249368978
      vertex 0.33726024627685547 0.15469196745268693 0.18868100957953393
    endloop
  endfacet
  facet normal 0.9447264713039174 0.15453621381500116 -0.28915472162386197
    outer loop
      vertex 0.34550905227661133 0.13477296434667901 0.20498597612191372
      vertex 0.33726024627685547 0.15469196745268693 0.18868100957953393
      vertex 0.3434300422668457 0.1485679646367349 0.20556605077235934
    endloop
  endfacet
  facet normal 0.8568090779807301 0.1079900536909124 -0.5041987229194904
    outer loop
      vertex 0.2885408401489258 0.1718529809221113 0.10919798014885407
      vertex 0.31273317337036133 0.16348997346750466 0.14851797085177765
      vertex 0.3156919479370117 0.1347899737418305 0.14739894857493963
    endloop
  endfacet
  facet normal 0.8482306382443322 0.08209445922123422 -0.5232258442668768
    outer loop
      vertex 0.2885408401489258 0.1718529809221113 0.10919798014885407
      vertex 0.3156919479370117 0.1347899737418305 0.14739894857493963
      vertex 0.29134321212768555 0.1347909801804047 0.10792601099117904
    endloop
  endfacet
  facet normal 0.8486724052840499 -0.07550114249955825 -0.5235023648376832
    outer loop
      vertex 0.28896379470825195 0.09772798154257033 0.1094139753050214
      vertex 0.29134321212768555 0.1347909801804047 0.10792601099117904
      vertex 0.3156919479370117 0.1347899737418305 0.14739894857493963
    endloop
  endfacet
  facet normal 0.8578306846934458 -0.10249548935852637 -0.5036081721532427
    outer loop
      vertex 0.28896379470825195 0.09772798154257033 0.1094139753050214
      vertex 0.3156919479370117 0.1347899737418305 0.14739894857493963
      vertex 0.3130049705505371 0.10609097433402369 0.1486629199963847
    endloop
  endfacet
  facet normal 0.8600505726176668 -0.10253558284942399 -0.49979942656004755
    outer loop
      vertex 0.3373289108276367 0.11488096721904881 0.18871605062462482
      vertex 0.3130049705505371 0.10609097433402369 0.1486629199963847
      vertex 0.3156919479370117 0.1347899737418305 0.14739894857493963
    endloop
  endfacet
  facet normal 0.8480203167770997 -0.13945115952361395 -0.5112875085906042
    outer loop
      vertex 0.3373289108276367 0.11488096721904881 0.18871605062462482
      vertex 0.3156919479370117 0.1347899737418305 0.14739894857493963
      vertex 0.34008121490478516 0.1347859671207279 0.1878520249368978
    endloop
  endfacet
  facet normal 0.847792222545405 0.14143010377167425 -0.5111221704628511
    outer loop
      vertex 0.33726024627685547 0.15469196745268693 0.18868100957953393
      vertex 0.34008121490478516 0.1347859671207279 0.1878520249368978
      vertex 0.3156919479370117 0.1347899737418305 0.14739894857493963
    endloop
  endfacet
  facet normal 0.8587990273810688 0.10806214795447608 -0.5007861846624714
    outer loop
      vertex 0.33726024627685547 0.15469196745268693 0.18868100957953393
      vertex 0.3156919479370117 0.1347899737418305 0.14739894857493963
      vertex 0.31273317337036133 0.16348997346750466 0.14851797085177765
    endloop
  endfacet
  facet normal 0.7808347103250256 -0.5024889434634916 -0.3712169404116377
    outer loop
      vertex 0.28896379470825195 0.09772798154257033 0.1094139753050214
      vertex 0.3130049705505371 0.10609097433402369 0.1486629199963847
      vertex 0.30494117736816406 0.09075897338613004 0.1524549649990945
    endloop
  endfacet
  facet normal 0.8348360336123637 -0.4028912797241445 -0.37513652675341735
    outer loop
      vertex 0.28896379470825195 0.09772798154257033 0.1094139753050214
      vertex 0.30494117736816406 0.09075897338613004 0.1524549649990945
      vertex 0.2818260192871094 0.07878397812784174 0.11387502225222002
    endloop
  endfacet
  facet normal 0.3752819007623787 -0.9248208044545283 0.06220911997653903
    outer loop
      vertex 0.26884984970092773 0.07397297694791105 0.12063299609304212
      vertex 0.2818260192871094 0.07878397812784174 0.11387502225222002
      vertex 0.30494117736816406 0.09075897338613004 0.1524549649990945
    endloop
  endfacet
  facet normal 0.35840310622681126 -0.9297829118869237 0.08396993634656372
    outer loop
      vertex 0.26884984970092773 0.07397297694791105 0.12063299609304212
      vertex 0.30494117736816406 0.09075897338613004 0.1524549649990945
      vertex 0.2928810119628906 0.0866159728245747 0.1580558935843679
    endloop
  endfacet
  facet normal 0.37002575889000383 -0.9218976184831775 0.11482908513491821
    outer loop
      vertex 0.31812286376953125 0.10137296668421567 0.1951919738694481
      vertex 0.2928810119628906 0.0866159728245747 0.1580558935843679
      vertex 0.30494117736816406 0.09075897338613004 0.1524549649990945
    endloop
  endfacet
  facet normal 0.29822281912278287 -0.9438115253969487 0.14241823858742678
    outer loop
      vertex 0.31812286376953125 0.10137296668421567 0.1951919738694481
      vertex 0.30494117736816406 0.09075897338613004 0.1524549649990945
      vertex 0.3290691375732422 0.10424596707419104 0.1913100430325878
    endloop
  endfacet
  facet normal 0.737785013511192 -0.631305364304888 -0.23901215625604233
    outer loop
      vertex 0.3373289108276367 0.11488096721904881 0.18871605062462482
      vertex 0.3290691375732422 0.10424596707419104 0.1913100430325878
      vertex 0.30494117736816406 0.09075897338613004 0.1524549649990945
    endloop
  endfacet
  facet normal 0.7835066569831763 -0.5024905378878567 -0.3655414857389235
    outer loop
      vertex 0.3373289108276367 0.11488096721904881 0.18871605062462482
      vertex 0.30494117736816406 0.09075897338613004 0.1524549649990945
      vertex 0.3130049705505371 0.10609097433402369 0.1486629199963847
    endloop
  endfacet
  facet normal -0.12561109347685243 -0.912638981467016 0.38898835805509285
    outer loop
      vertex 0.26884984970092773 0.07397297694791105 0.12063299609304212
      vertex 0.2928810119628906 0.0866159728245747 0.1580558935843679
      vertex 0.27820777893066406 0.0914869713390945 0.16474591970754426
    endloop
  endfacet
  facet normal -0.08546268757188435 -0.9196759408892589 0.38326530338976295
    outer loop
      vertex 0.26884984970092773 0.07397297694791105 0.12063299609304212
      vertex 0.27820777893066406 0.0914869713390945 0.16474591970754426
      vertex 0.24895000457763672 0.07931197595769558 0.12900697271666006
    endloop
  endfacet
  facet normal -0.4672210147391087 -0.646768356599957 0.602822707176122
    outer loop
      vertex 0.2314291000366211 0.09838897411236885 0.13589500778423247
      vertex 0.24895000457763672 0.07931197595769558 0.12900697271666006
      vertex 0.27820777893066406 0.0914869713390945 0.16474591970754426
    endloop
  endfacet
  facet normal -0.48306064421794775 -0.5971318954731996 0.6403795073363335
    outer loop
      vertex 0.2314291000366211 0.09838897411236885 0.13589500778423247
      vertex 0.27820777893066406 0.0914869713390945 0.16474591970754426
      vertex 0.2662220001220703 0.10700096984287527 0.1701708985839736
    endloop
  endfacet
  facet normal -0.48960539953857546 -0.5996218749503541 0.6330404093134132
    outer loop
      vertex 0.29925107955932617 0.1155119637491396 0.20377790604358959
      vertex 0.2662220001220703 0.10700096984287527 0.1701708985839736
      vertex 0.27820777893066406 0.0914869713390945 0.16474591970754426
    endloop
  endfacet
  facet normal -0.49321853712726205 -0.5965758838853314 0.6331134885630533
    outer loop
      vertex 0.29925107955932617 0.1155119637491396 0.20377790604358959
      vertex 0.27820777893066406 0.0914869713390945 0.16474591970754426
      vertex 0.3073110580444336 0.10475096602480638 0.1999169538204293
    endloop
  endfacet
  facet normal -0.09776849543373743 -0.9017814718740141 0.42098871515203357
    outer loop
      vertex 0.31812286376953125 0.10137296668421567 0.1951919738694481
      vertex 0.3073110580444336 0.10475096602480638 0.1999169538204293
      vertex 0.27820777893066406 0.0914869713390945 0.16474591970754426
    endloop
  endfacet
  facet normal -0.10339722527157655 -0.8982200421150754 0.42721162173907523
    outer loop
      vertex 0.31812286376953125 0.10137296668421567 0.1951919738694481
      vertex 0.27820777893066406 0.0914869713390945 0.16474591970754426
      vertex 0.2928810119628906 0.0866159728245747 0.1580558935843679
    endloop
  endfacet
  facet normal -0.6761096750053117 -0.14422998071669305 0.7225464829522554
    outer loop
      vertex 0.2314291000366211 0.09838897411236885 0.13589500778423247
      vertex 0.2662220001220703 0.10700096984287527 0.1701708985839736
      vertex 0.2622261047363281 0.1347909697448338 0.17197906961544662
    endloop
  endfacet
  facet normal -0.6699198533017414 -0.15331686025606317 0.7264305407355862
    outer loop
      vertex 0.2314291000366211 0.09838897411236885 0.13589500778423247
      vertex 0.2622261047363281 0.1347909697448338 0.17197906961544662
      vertex 0.2255878448486328 0.13479097524961317 0.13819098463162094
    endloop
  endfacet
  facet normal -0.6702743225116027 0.1499077914035483 0.7268149603978461
    outer loop
      vertex 0.23100614547729492 0.17119197599824898 0.13567996608700095
      vertex 0.2255878448486328 0.13479097524961317 0.13819098463162094
      vertex 0.2622261047363281 0.1347909697448338 0.17197906961544662
    endloop
  endfacet
  facet normal -0.675985715451877 0.14142169461842294 0.7232172680434751
    outer loop
      vertex 0.23100614547729492 0.17119197599824898 0.13567996608700095
      vertex 0.2622261047363281 0.1347909697448338 0.17197906961544662
      vertex 0.26595020294189453 0.1625799709504621 0.17002594914285085
    endloop
  endfacet
  facet normal -0.6867689263702728 0.14213765401495748 0.7128431307681566
    outer loop
      vertex 0.2991828918457031 0.15405996391188437 0.20374191111841355
      vertex 0.26595020294189453 0.1625799709504621 0.17002594914285085
      vertex 0.2622261047363281 0.1347909697448338 0.17197906961544662
    endloop
  endfacet
  facet normal -0.6867889886015015 0.1422424537287567 0.7128028966642528
    outer loop
      vertex 0.2991828918457031 0.15405996391188437 0.20374191111841355
      vertex 0.2622261047363281 0.1347909697448338 0.17197906961544662
      vertex 0.29656410217285156 0.13478596431639497 0.2050648926737142
    endloop
  endfacet
  facet normal -0.6867027079312067 -0.14332009543910557 0.7126701489211357
    outer loop
      vertex 0.29925107955932617 0.1155119637491396 0.20377790604358959
      vertex 0.29656410217285156 0.13478596431639497 0.2050648926737142
      vertex 0.2622261047363281 0.1347909697448338 0.17197906961544662
    endloop
  endfacet
  facet normal -0.6870431212973868 -0.14511448518036385 0.7119786061875611
    outer loop
      vertex 0.29925107955932617 0.1155119637491396 0.20377790604358959
      vertex 0.2622261047363281 0.1347909697448338 0.17197906961544662
      vertex 0.2662220001220703 0.10700096984287527 0.1701708985839736
    endloop
  endfacet
  facet normal 0.9443784433454265 -0.06197913383964775 -0.3229674019354831
    outer loop
      vertex 0.28896379470825195 0.09772798154257033 0.1094139753050214
      vertex 0.2837100028991699 0.0929109823732378 0.09497594141628918
      vertex 0.28603315353393555 0.13479098249290342 0.09373199930294662
    endloop
  endfacet
  facet normal 0.9340368549831054 -0.07399294803538144 -0.34942838633159506
    outer loop
      vertex 0.28896379470825195 0.09772798154257033 0.1094139753050214
      vertex 0.28603315353393555 0.13479098249290342 0.09373199930294662
      vertex 0.29134321212768555 0.1347909801804047 0.10792601099117904
    endloop
  endfacet
  facet normal 0.933406679382219 0.08256205520806847 -0.3491926086338015
    outer loop
      vertex 0.2885408401489258 0.1718529809221113 0.10919798014885407
      vertex 0.29134321212768555 0.1347909801804047 0.10792601099117904
      vertex 0.28603315353393555 0.13479098249290342 0.09373199930294662
    endloop
  endfacet
  facet normal 0.9458535233131984 0.06841213772979976 -0.3173025241740881
    outer loop
      vertex 0.2885408401489258 0.1718529809221113 0.10919798014885407
      vertex 0.28603315353393555 0.13479098249290342 0.09373199930294662
      vertex 0.2833747863769531 0.17666998105811682 0.0948369570307499
    endloop
  endfacet
  facet normal 0.6542475563435624 0.021583913221300096 0.7559724000970752
    outer loop
      vertex 0.28625917434692383 0.18142498300207782 0.09220493590144652
      vertex 0.2833747863769531 0.17666998105811682 0.0948369570307499
      vertex 0.28603315353393555 0.13479098249290342 0.09373199930294662
    endloop
  endfacet
  facet normal 0.6383001734412463 0.022103199263533435 0.7694701665218681
    outer loop
      vertex 0.28625917434692383 0.18142498300207782 0.09220493590144652
      vertex 0.28603315353393555 0.13479098249290342 0.09373199930294662
      vertex 0.2888660430908203 0.1347909828757627 0.09138202657803207
    endloop
  endfacet
  facet normal 0.6383541331771655 -0.01787634389931222 0.7695352084111702
    outer loop
      vertex 0.28649091720581055 0.0881559812991149 0.09226893609448172
      vertex 0.2888660430908203 0.1347909828757627 0.09138202657803207
      vertex 0.28603315353393555 0.13479098249290342 0.09373199930294662
    endloop
  endfacet
  facet normal 0.6830661909461302 -0.016202676044367842 0.730176726604831
    outer loop
      vertex 0.28649091720581055 0.0881559812991149 0.09226893609448172
      vertex 0.28603315353393555 0.13479098249290342 0.09373199930294662
      vertex 0.2837100028991699 0.0929109823732378 0.09497594141628918
    endloop
  endfacet
  facet normal 0.2824749796231261 -0.9538083557702349 0.10226194966748632
    outer loop
      vertex 0.26884984970092773 0.07397297694791105 0.12063299609304212
      vertex 0.2613229751586914 0.07007098377149469 0.10502992996660354
      vertex 0.27674293518066406 0.07395998298193682 0.0987089772310612
    endloop
  endfacet
  facet normal 0.41082041599617036 -0.8995516252966564 0.14843671792005278
    outer loop
      vertex 0.26884984970092773 0.07397297694791105 0.12063299609304212
      vertex 0.27674293518066406 0.07395998298193682 0.0987089772310612
      vertex 0.2818260192871094 0.07878397812784174 0.11387502225222002
    endloop
  endfacet
  facet normal 0.9054089521431599 -0.38385121609742445 -0.18136392496732454
    outer loop
      vertex 0.28896379470825195 0.09772798154257033 0.1094139753050214
      vertex 0.2818260192871094 0.07878397812784174 0.11387502225222002
      vertex 0.27674293518066406 0.07395998298193682 0.0987089772310612
    endloop
  endfacet
  facet normal 0.9049255700501692 -0.373032000556432 -0.20483368675645755
    outer loop
      vertex 0.28896379470825195 0.09772798154257033 0.1094139753050214
      vertex 0.27674293518066406 0.07395998298193682 0.0987089772310612
      vertex 0.2837100028991699 0.0929109823732378 0.09497594141628918
    endloop
  endfacet
  facet normal 0.6249887199489162 -0.07674108697910682 0.7768525635575132
    outer loop
      vertex 0.28649091720581055 0.0881559812991149 0.09226893609448172
      vertex 0.2837100028991699 0.0929109823732378 0.09497594141628918
      vertex 0.27674293518066406 0.07395998298193682 0.0987089772310612
    endloop
  endfacet
  facet normal 0.7051083692247205 -0.17211274738434745 0.687894897376821
    outer loop
      vertex 0.28649091720581055 0.0881559812991149 0.09226893609448172
      vertex 0.27674293518066406 0.07395998298193682 0.0987089772310612
      vertex 0.27936792373657227 0.06960998074256053 0.09492992283430635
    endloop
  endfacet
  facet normal 0.304924218353058 -0.5130524265482388 0.8023705058604413
    outer loop
      vertex 0.2612628936767578 0.0672619815451404 0.10030900322416869
      vertex 0.27936792373657227 0.06960998074256053 0.09492992283430635
      vertex 0.27674293518066406 0.07395998298193682 0.0987089772310612
    endloop
  endfacet
  facet normal 0.3913784500766105 -0.7930061704984233 0.46686627889263527
    outer loop
      vertex 0.2612628936767578 0.0672619815451404 0.10030900322416869
      vertex 0.27674293518066406 0.07395998298193682 0.0987089772310612
      vertex 0.2613229751586914 0.07007098377149469 0.10502992996660354
    endloop
  endfacet
  facet normal -0.2615606785216989 -0.6480857214684483 0.7152418535572349
    outer loop
      vertex 0.2314291000366211 0.09838897411236885 0.13589500778423247
      vertex 0.2082839012145996 0.09217897708519601 0.12180399191043434
      vertex 0.2336421012878418 0.07337497952235011 0.11403893414411437
    endloop
  endfacet
  facet normal -0.4124121438262374 -0.6198293063360122 0.6676285304206709
    outer loop
      vertex 0.2314291000366211 0.09838897411236885 0.13589500778423247
      vertex 0.2336421012878418 0.07337497952235011 0.11403893414411437
      vertex 0.24895000457763672 0.07931197595769558 0.12900697271666006
    endloop
  endfacet
  facet normal -0.06403706770952787 -0.9034672881876243 0.4238468038502418
    outer loop
      vertex 0.26884984970092773 0.07397297694791105 0.12063299609304212
      vertex 0.24895000457763672 0.07931197595769558 0.12900697271666006
      vertex 0.2336421012878418 0.07337497952235011 0.11403893414411437
    endloop
  endfacet
  facet normal -0.031699362170729335 -0.9659311657947758 0.25685041052004215
    outer loop
      vertex 0.26884984970092773 0.07397297694791105 0.12063299609304212
      vertex 0.2336421012878418 0.07337497952235011 0.11403893414411437
      vertex 0.2613229751586914 0.07007098377149469 0.10502992996660354
    endloop
  endfacet
  facet normal 0.06347935482229386 -0.8580003031075627 0.509711537419623
    outer loop
      vertex 0.2612628936767578 0.0672619815451404 0.10030900322416869
      vertex 0.2613229751586914 0.07007098377149469 0.10502992996660354
      vertex 0.2336421012878418 0.07337497952235011 0.11403893414411437
    endloop
  endfacet
  facet normal 0.09891999054037658 -0.8198217244900683 0.5640099072938547
    outer loop
      vertex 0.2612628936767578 0.0672619815451404 0.10030900322416869
      vertex 0.2336421012878418 0.07337497952235011 0.11403893414411437
      vertex 0.2259387969970703 0.06921897937424774 0.10934900159750871
    endloop
  endfacet
  facet normal -0.14720693111608935 -0.6077592092808966 0.7803581632594372
    outer loop
      vertex 0.19298982620239258 0.08766797906019391 0.11750196633419052
      vertex 0.2259387969970703 0.06921897937424774 0.10934900159750871
      vertex 0.2336421012878418 0.07337497952235011 0.11403893414411437
    endloop
  endfacet
  facet normal -0.0987799476953801 -0.49070250903178414 0.8657098645407766
    outer loop
      vertex 0.19298982620239258 0.08766797906019391 0.11750196633419052
      vertex 0.2336421012878418 0.07337497952235011 0.11403893414411437
      vertex 0.2082839012145996 0.09217897708519601 0.12180399191043434
    endloop
  endfacet
  facet normal -0.4844215945206739 0.14749652914809894 0.8623111344818131
    outer loop
      vertex 0.23100614547729492 0.17119197599824898 0.13567996608700095
      vertex 0.20794916152954102 0.17740197760446758 0.12166500776341138
      vertex 0.1998310089111328 0.1347909774975931 0.12439298620327621
    endloop
  endfacet
  facet normal -0.4682070651973614 0.12998356393381763 0.8740059594798751
    outer loop
      vertex 0.23100614547729492 0.17119197599824898 0.13567996608700095
      vertex 0.1998310089111328 0.1347909774975931 0.12439298620327621
      vertex 0.2255878448486328 0.13479097524961317 0.13819098463162094
    endloop
  endfacet
  facet normal -0.46819042677379796 -0.13025233916820542 0.8739748580014072
    outer loop
      vertex 0.2314291000366211 0.09838897411236885 0.13589500778423247
      vertex 0.2255878448486328 0.13479097524961317 0.13819098463162094
      vertex 0.1998310089111328 0.1347909774975931 0.12439298620327621
    endloop
  endfacet
  facet normal -0.4848651850222613 -0.14854779848504518 0.8618812585957388
    outer loop
      vertex 0.2314291000366211 0.09838897411236885 0.13589500778423247
      vertex 0.1998310089111328 0.1347909774975931 0.12439298620327621
      vertex 0.2082839012145996 0.09217897708519601 0.12180399191043434
    endloop
  endfacet
  facet normal -0.240081006385645 -0.10625065631824376 0.9649206746695804
    outer loop
      vertex 0.19298982620239258 0.08766797906019391 0.11750196633419052
      vertex 0.2082839012145996 0.09217897708519601 0.12180399191043434
      vertex 0.1998310089111328 0.1347909774975931 0.12439298620327621
    endloop
  endfacet
  facet normal -0.22665827545303124 -0.1086345688818809 0.9678969762389518
    outer loop
      vertex 0.19298982620239258 0.08766797906019391 0.11750196633419052
      vertex 0.1998310089111328 0.1347909774975931 0.12439298620327621
      vertex 0.1820068359375 0.13479097817762328 0.12021899213894516
    endloop
  endfacet
  facet normal -0.22665345485228097 0.10882754625752049 0.9678764262957809
    outer loop
      vertex 0.19275712966918945 0.18191397912212176 0.11743796630032866
      vertex 0.1820068359375 0.13479097817762328 0.12021899213894516
      vertex 0.1998310089111328 0.1347909774975931 0.12439298620327621
    endloop
  endfacet
  facet normal -0.2369108767178136 0.10695561659402641 0.9656260832080855
    outer loop
      vertex 0.19275712966918945 0.18191397912212176 0.11743796630032866
      vertex 0.1998310089111328 0.1347909774975931 0.12439298620327621
      vertex 0.20794916152954102 0.17740197760446758 0.12166500776341138
    endloop
  endfacet
  facet normal 0.9940844580078444 -0.041951134599421076 0.10018079982247842
    outer loop
      vertex 0.28649091720581055 0.0881559812991149 0.09226893609448172
      vertex 0.28655481338500977 0.07998198351480051 0.08821200422077569
      vertex 0.28894519805908203 0.13479098351735735 0.08744394769772201
    endloop
  endfacet
  facet normal 0.9985237301867366 -0.05047322860322895 0.02007021296179015
    outer loop
      vertex 0.28649091720581055 0.0881559812991149 0.09226893609448172
      vertex 0.28894519805908203 0.13479098351735735 0.08744394769772201
      vertex 0.2888660430908203 0.1347909828757627 0.09138202657803207
    endloop
  endfacet
  facet normal 0.9982598750588765 0.055449261145722635 0.020064926758643423
    outer loop
      vertex 0.28625917434692383 0.18142498300207782 0.09220493590144652
      vertex 0.2888660430908203 0.1347909828757627 0.09138202657803207
      vertex 0.28894519805908203 0.13479098351735735 0.08744394769772201
    endloop
  endfacet
  facet normal 0.9950872004485514 0.048503720259210695 0.08630673568430601
    outer loop
      vertex 0.28625917434692383 0.18142498300207782 0.09220493590144652
      vertex 0.28894519805908203 0.13479098351735735 0.08744394769772201
      vertex 0.28621912002563477 0.18959898212052456 0.08807302404804052
    endloop
  endfacet
  facet normal 0.9946839515538375 0.0505042886499634 -0.08973936343213307
    outer loop
      vertex 0.2850527763366699 0.19966298170514868 0.08080900762889764
      vertex 0.28621912002563477 0.18959898212052456 0.08807302404804052
      vertex 0.28894519805908203 0.13479098351735735 0.08744394769772201
    endloop
  endfacet
  facet normal 0.9940874470759679 0.0497769563907659 -0.09650078848619266
    outer loop
      vertex 0.2850527763366699 0.19966298170514868 0.08080900762889764
      vertex 0.28894519805908203 0.13479098351735735 0.08744394769772201
      vertex 0.2882509231567383 0.1347909846825601 0.08029198637112289
    endloop
  endfacet
  facet normal 0.994374570765815 -0.04360536311800885 -0.09652867616230802
    outer loop
      vertex 0.2854771614074707 0.06991798255943273 0.08102392083980803
      vertex 0.2882509231567383 0.1347909846825601 0.08029198637112289
      vertex 0.28894519805908203 0.13479098351735735 0.08744394769772201
    endloop
  endfacet
  facet normal 0.9952317241673337 -0.04462047219518352 -0.08673424163498035
    outer loop
      vertex 0.2854771614074707 0.06991798255943273 0.08102392083980803
      vertex 0.28894519805908203 0.13479098351735735 0.08744394769772201
      vertex 0.28655481338500977 0.07998198351480051 0.08821200422077569
    endloop
  endfacet
  facet normal 0.24283393781653612 -0.47387425185912135 0.8464483871267479
    outer loop
      vertex 0.2612628936767578 0.0672619815451404 0.10030900322416869
      vertex 0.2596302032470703 0.057895984114571794 0.0955339543960072
      vertex 0.27938318252563477 0.059054982348603596 0.09051595875048135
    endloop
  endfacet
  facet normal 0.308341280878299 -0.366632539697808 0.8777848457002806
    outer loop
      vertex 0.2612628936767578 0.0672619815451404 0.10030900322416869
      vertex 0.27938318252563477 0.059054982348603596 0.09051595875048135
      vertex 0.27936792373657227 0.06960998074256053 0.09492992283430635
    endloop
  endfacet
  facet normal 0.8025260958424608 -0.22919312526534263 0.5508378861543225
    outer loop
      vertex 0.28649091720581055 0.0881559812991149 0.09226893609448172
      vertex 0.27936792373657227 0.06960998074256053 0.09492992283430635
      vertex 0.27938318252563477 0.059054982348603596 0.09051595875048135
    endloop
  endfacet
  facet normal 0.8415640959329772 -0.23484825184774816 0.486432082659612
    outer loop
      vertex 0.28649091720581055 0.0881559812991149 0.09226893609448172
      vertex 0.27938318252563477 0.059054982348603596 0.09051595875048135
      vertex 0.28655481338500977 0.07998198351480051 0.08821200422077569
    endloop
  endfacet
  facet normal 0.9211362104757483 -0.286684531392673 0.26328703198323583
    outer loop
      vertex 0.2854771614074707 0.06991798255943273 0.08102392083980803
      vertex 0.28655481338500977 0.07998198351480051 0.08821200422077569
      vertex 0.27938318252563477 0.059054982348603596 0.09051595875048135
    endloop
  endfacet
  facet normal 0.9211307279531182 -0.28628827740453855 0.26373699824124136
    outer loop
      vertex 0.2854771614074707 0.06991798255943273 0.08102392083980803
      vertex 0.27938318252563477 0.059054982348603596 0.09051595875048135
      vertex 0.27715015411376953 0.04514798311496479 0.08321891745276044
    endloop
  endfacet
  facet normal 0.18750394482356192 -0.4798264747215174 0.8570932416207258
    outer loop
      vertex 0.2536768913269043 0.044920985459994775 0.08822701887909568
      vertex 0.27715015411376953 0.04514798311496479 0.08321891745276044
      vertex 0.27938318252563477 0.059054982348603596 0.09051595875048135
    endloop
  endfacet
  facet normal 0.23508211764863438 -0.5565996934463544 0.7968269443343756
    outer loop
      vertex 0.2536768913269043 0.044920985459994775 0.08822701887909568
      vertex 0.27938318252563477 0.059054982348603596 0.09051595875048135
      vertex 0.2596302032470703 0.057895984114571794 0.0955339543960072
    endloop
  endfacet
  facet normal -0.16492746266418426 -0.5836329822548062 0.7950921167283168
    outer loop
      vertex 0.19298982620239258 0.08766797906019391 0.11750196633419052
      vertex 0.18175077438354492 0.08415097799332466 0.11258899331094163
      vertex 0.2194957733154297 0.0623899791637519 0.10444496873138287
    endloop
  endfacet
  facet normal -0.08558726538214757 -0.5266211100203058 0.8457807200955735
    outer loop
      vertex 0.19298982620239258 0.08766797906019391 0.11750196633419052
      vertex 0.2194957733154297 0.0623899791637519 0.10444496873138287
      vertex 0.2259387969970703 0.06921897937424774 0.10934900159750871
    endloop
  endfacet
  facet normal 0.1500492013318414 -0.6661819374734377 0.7305387487079746
    outer loop
      vertex 0.2612628936767578 0.0672619815451404 0.10030900322416869
      vertex 0.2259387969970703 0.06921897937424774 0.10934900159750871
      vertex 0.2194957733154297 0.0623899791637519 0.10444496873138287
    endloop
  endfacet
  facet normal 0.14104744000130676 -0.4690687997820137 0.8718257169527285
    outer loop
      vertex 0.2612628936767578 0.0672619815451404 0.10030900322416869
      vertex 0.2194957733154297 0.0623899791637519 0.10444496873138287
      vertex 0.2596302032470703 0.057895984114571794 0.0955339543960072
    endloop
  endfacet
  facet normal 0.12675430060323764 -0.5302563726088872 0.8383087298759622
    outer loop
      vertex 0.2536768913269043 0.044920985459994775 0.08822701887909568
      vertex 0.2596302032470703 0.057895984114571794 0.0955339543960072
      vertex 0.2194957733154297 0.0623899791637519 0.10444496873138287
    endloop
  endfacet
  facet normal 0.02536833248936618 -0.6530486096435545 0.75689098366233
    outer loop
      vertex 0.2536768913269043 0.044920985459994775 0.08822701887909568
      vertex 0.2194957733154297 0.0623899791637519 0.10444496873138287
      vertex 0.2054591178894043 0.05367598241153296 0.09739695648558122
    endloop
  endfacet
  facet normal -0.12942265320278384 -0.48915846332149204 0.8625391438067657
    outer loop
      vertex 0.1600170135498047 0.08057797866263709 0.10583495201074711
      vertex 0.2054591178894043 0.05367598241153296 0.09739695648558122
      vertex 0.2194957733154297 0.0623899791637519 0.10444496873138287
    endloop
  endfacet
  facet normal -0.15614520118294745 -0.5721604840483171 0.8051403956088233
    outer loop
      vertex 0.1600170135498047 0.08057797866263709 0.10583495201074711
      vertex 0.2194957733154297 0.0623899791637519 0.10444496873138287
      vertex 0.18175077438354492 0.08415097799332466 0.11258899331094163
    endloop
  endfacet
  facet normal -0.3621666980459406 0.13952709396099033 0.9216113458922375
    outer loop
      vertex 0.19275712966918945 0.18191397912212176 0.11743796630032866
      vertex 0.18141603469848633 0.18542997969914185 0.11244893889616803
      vertex 0.16916990280151367 0.13479097897853387 0.11530303945645004
    endloop
  endfacet
  facet normal -0.3543316473903394 0.13544001132566644 0.9252594700892024
    outer loop
      vertex 0.19275712966918945 0.18191397912212176 0.11743796630032866
      vertex 0.16916990280151367 0.13479097897853387 0.11530303945645004
      vertex 0.1820068359375 0.13479097817762328 0.12021899213894516
    endloop
  endfacet
  facet normal -0.3543079581179172 -0.1359239996926499 0.9251975665347725
    outer loop
      vertex 0.19298982620239258 0.08766797906019391 0.11750196633419052
      vertex 0.1820068359375 0.13479097817762328 0.12021899213894516
      vertex 0.16916990280151367 0.13479097897853387 0.11530303945645004
    endloop
  endfacet
  facet normal -0.35985779138897245 -0.13884974511436493 0.9226175362837662
    outer loop
      vertex 0.19298982620239258 0.08766797906019391 0.11750196633419052
      vertex 0.16916990280151367 0.13479097897853387 0.11530303945645004
      vertex 0.18175077438354492 0.08415097799332466 0.11258899331094163
    endloop
  endfacet
  facet normal -0.2766084935272078 -0.11982175383098129 0.9534833446985198
    outer loop
      vertex 0.1600170135498047 0.08057797866263709 0.10583495201074711
      vertex 0.18175077438354492 0.08415097799332466 0.11258899331094163
      vertex 0.16916990280151367 0.13479097897853387 0.11530303945645004
    endloop
  endfacet
  facet normal -0.2621318080673668 -0.12291025020886205 0.9571729131107546
    outer loop
      vertex 0.1600170135498047 0.08057797866263709 0.10583495201074711
      vertex 0.16916990280151367 0.13479097897853387 0.11530303945645004
      vertex 0.1448688507080078 0.1347909800627871 0.10864794244869858
    endloop
  endfacet
  facet normal -0.2620744316320351 0.12465135269368019 0.9569634436886195
    outer loop
      vertex 0.15959405899047852 0.18900397962074747 0.10561896244292424
      vertex 0.1448688507080078 0.1347909800627871 0.10864794244869858
      vertex 0.16916990280151367 0.13479097897853387 0.11530303945645004
    endloop
  endfacet
  facet normal -0.2783948958687925 0.12102685493304684 0.9528109898291578
    outer loop
      vertex 0.15959405899047852 0.18900397962074747 0.10561896244292424
      vertex 0.16916990280151367 0.13479097897853387 0.11530303945645004
      vertex 0.18141603469848633 0.18542997969914185 0.11244893889616803
    endloop
  endfacet
  facet normal 0.9985998179196273 -0.05221487624345742 -0.008485891218219412
    outer loop
      vertex 0.2854771614074707 0.06991798255943273 0.08102392083980803
      vertex 0.28482913970947266 0.05949098639216795 0.06892501071665658
      vertex 0.2887611389160156 0.13479098663597167 0.06830203523739486
    endloop
  endfacet
  facet normal 0.99820577673941 -0.04220082843830768 0.04247725701115407
    outer loop
      vertex 0.2854771614074707 0.06991798255943273 0.08102392083980803
      vertex 0.2887611389160156 0.13479098663597167 0.06830203523739486
      vertex 0.2882509231567383 0.1347909846825601 0.08029198637112289
    endloop
  endfacet
  facet normal 0.9979026609520059 0.04885750992263595 0.04246437317405696
    outer loop
      vertex 0.2850527763366699 0.19966298170514868 0.08080900762889764
      vertex 0.2882509231567383 0.1347909846825601 0.08029198637112289
      vertex 0.2887611389160156 0.13479098663597167 0.06830203523739486
    endloop
  endfacet
  facet normal 0.9984223351549243 0.05568791031208272 0.0071900840649808005
    outer loop
      vertex 0.2850527763366699 0.19966298170514868 0.08080900762889764
      vertex 0.2887611389160156 0.13479098663597167 0.06830203523739486
      vertex 0.2845578193664551 0.2100899892537641 0.06878103043057826
    endloop
  endfacet
  facet normal 0.9971066634348822 0.05598728223323241 -0.05141717574792769
    outer loop
      vertex 0.28313398361206055 0.21933499289183453 0.05123604711927565
      vertex 0.2845578193664551 0.2100899892537641 0.06878103043057826
      vertex 0.2887611389160156 0.13479098663597167 0.06830203523739486
    endloop
  endfacet
  facet normal 0.9977787146170428 0.061013449661471875 -0.02673940196729992
    outer loop
      vertex 0.28313398361206055 0.21933499289183453 0.05123604711927565
      vertex 0.2887611389160156 0.13479098663597167 0.06830203523739486
      vertex 0.28829097747802734 0.13479098949425797 0.05075800409420639
    endloop
  endfacet
  facet normal 0.9978260501476263 -0.06023378728789275 -0.026740690263031594
    outer loop
      vertex 0.2832012176513672 0.050245988488421545 0.05127297445093282
      vertex 0.28829097747802734 0.13479098949425797 0.05075800409420639
      vertex 0.2887611389160156 0.13479098663597167 0.06830203523739486
    endloop
  endfacet
  facet normal 0.9965404012709136 -0.052569691323555205 -0.06437123727995825
    outer loop
      vertex 0.2832012176513672 0.050245988488421545 0.05127297445093282
      vertex 0.2887611389160156 0.13479098663597167 0.06830203523739486
      vertex 0.28482913970947266 0.05949098639216795 0.06892501071665658
    endloop
  endfacet
  facet normal 0.0971550741903921 -0.7165228775845657 0.6907646903664031
    outer loop
      vertex 0.2536768913269043 0.044920985459994775 0.08822701887909568
      vertex 0.24065494537353516 0.03128298280576282 0.07591198179084913
      vertex 0.27303218841552734 0.030739985325533944 0.07079492294841616
    endloop
  endfacet
  facet normal 0.16099915649636795 -0.6705098575946147 0.7242208243870841
    outer loop
      vertex 0.2536768913269043 0.044920985459994775 0.08822701887909568
      vertex 0.27303218841552734 0.030739985325533944 0.07079492294841616
      vertex 0.27715015411376953 0.04514798311496479 0.08321891745276044
    endloop
  endfacet
  facet normal 0.9480125939864789 -0.31424710546210805 0.05020834942232492
    outer loop
      vertex 0.2854771614074707 0.06991798255943273 0.08102392083980803
      vertex 0.27715015411376953 0.04514798311496479 0.08321891745276044
      vertex 0.27303218841552734 0.030739985325533944 0.07079492294841616
    endloop
  endfacet
  facet normal 0.9001108699192686 -0.3526951852576645 0.25574700027417613
    outer loop
      vertex 0.2854771614074707 0.06991798255943273 0.08102392083980803
      vertex 0.27303218841552734 0.030739985325533944 0.07079492294841616
      vertex 0.28482913970947266 0.05949098639216795 0.06892501071665658
    endloop
  endfacet
  facet normal 0.9220763817454222 -0.371226864484091 0.10938812235604393
    outer loop
      vertex 0.2832012176513672 0.050245988488421545 0.05127297445093282
      vertex 0.28482913970947266 0.05949098639216795 0.06892501071665658
      vertex 0.27303218841552734 0.030739985325533944 0.07079492294841616
    endloop
  endfacet
  facet normal 0.9038837381208102 -0.4253117117799973 0.04587085985153596
    outer loop
      vertex 0.2832012176513672 0.050245988488421545 0.05127297445093282
      vertex 0.27303218841552734 0.030739985325533944 0.07079492294841616
      vertex 0.26793384552001953 0.01796599017267564 0.052817921584430216
    endloop
  endfacet
  facet normal 0.06238566207485378 -0.8218431379818447 0.5662878117350194
    outer loop
      vertex 0.2266831398010254 0.01864098952303464 0.058341960962895456
      vertex 0.26793384552001953 0.01796599017267564 0.052817921584430216
      vertex 0.27303218841552734 0.030739985325533944 0.07079492294841616
    endloop
  endfacet
  facet normal 0.07198697025764607 -0.8358724618991651 0.5441829688181666
    outer loop
      vertex 0.2266831398010254 0.01864098952303464 0.058341960962895456
      vertex 0.27303218841552734 0.030739985325533944 0.07079492294841616
      vertex 0.24065494537353516 0.03128298280576282 0.07591198179084913
    endloop
  endfacet
  facet normal -0.12833304849034513 -0.506567779391643 0.8525958676579395
    outer loop
      vertex 0.1600170135498047 0.08057797866263709 0.10583495201074711
      vertex 0.1132349967956543 0.07589498115891503 0.09601091369590975
      vertex 0.17497920989990234 0.04386298098184972 0.08627294003240848
    endloop
  endfacet
  facet normal -0.14491620807897235 -0.5106153853604318 0.8475088323252035
    outer loop
      vertex 0.1600170135498047 0.08057797866263709 0.10583495201074711
      vertex 0.17497920989990234 0.04386298098184972 0.08627294003240848
      vertex 0.2054591178894043 0.05367598241153296 0.09739695648558122
    endloop
  endfacet
  facet normal -0.006723606501166593 -0.7406870704846693 0.6718165350245973
    outer loop
      vertex 0.2536768913269043 0.044920985459994775 0.08822701887909568
      vertex 0.2054591178894043 0.05367598241153296 0.09739695648558122
      vertex 0.17497920989990234 0.04386298098184972 0.08627294003240848
    endloop
  endfacet
  facet normal -0.009599106121306678 -0.6650964451298284 0.7466957719428557
    outer loop
      vertex 0.2536768913269043 0.044920985459994775 0.08822701887909568
      vertex 0.17497920989990234 0.04386298098184972 0.08627294003240848
      vertex 0.24065494537353516 0.03128298280576282 0.07591198179084913
    endloop
  endfacet
  facet normal -0.05473234850078669 -0.7893608116429895 0.6114849786134644
    outer loop
      vertex 0.2266831398010254 0.01864098952303464 0.058341960962895456
      vertex 0.24065494537353516 0.03128298280576282 0.07591198179084913
      vertex 0.17497920989990234 0.04386298098184972 0.08627294003240848
    endloop
  endfacet
  facet normal -0.039910738475051076 -0.7772216351582383 0.6279599213296422
    outer loop
      vertex 0.2266831398010254 0.01864098952303464 0.058341960962895456
      vertex 0.17497920989990234 0.04386298098184972 0.08627294003240848
      vertex 0.14364385604858398 0.03296498946240703 0.07079301596228271
    endloop
  endfacet
  facet normal -0.1665252538257774 -0.6154577562701599 0.7703772388156083
    outer loop
      vertex 0.06569480895996094 0.06899498200571133 0.08272801748356073
      vertex 0.14364385604858398 0.03296498946240703 0.07079301596228271
      vertex 0.17497920989990234 0.04386298098184972 0.08627294003240848
    endloop
  endfacet
  facet normal -0.1517741950915232 -0.5435313063662374 0.8255533372860481
    outer loop
      vertex 0.06569480895996094 0.06899498200571133 0.08272801748356073
      vertex 0.17497920989990234 0.04386298098184972 0.08627294003240848
      vertex 0.1132349967956543 0.07589498115891503 0.09601091369590975
    endloop
  endfacet
  facet normal -0.19143202204424206 0.1220904191087006 0.97388280121271
    outer loop
      vertex 0.15959405899047852 0.18900397962074747 0.10561896244292424
      vertex 0.11296319961547852 0.19368598193617292 0.09586597439041156
      vertex 0.09265279769897461 0.13479098159276753 0.09925699224575668
    endloop
  endfacet
  facet normal -0.17607528674293377 0.1025249763795632 0.9790230449875853
    outer loop
      vertex 0.15959405899047852 0.18900397962074747 0.10561896244292424
      vertex 0.09265279769897461 0.13479098159276753 0.09925699224575668
      vertex 0.1448688507080078 0.1347909800627871 0.10864794244869858
    endloop
  endfacet
  facet normal -0.1761203623025522 -0.10002374307084533 0.9792736434748539
    outer loop
      vertex 0.1600170135498047 0.08057797866263709 0.10583495201074711
      vertex 0.1448688507080078 0.1347909800627871 0.10864794244869858
      vertex 0.09265279769897461 0.13479098159276753 0.09925699224575668
    endloop
  endfacet
  facet normal -0.19239896781260188 -0.12091064121130844 0.9738394395517752
    outer loop
      vertex 0.1600170135498047 0.08057797866263709 0.10583495201074711
      vertex 0.09265279769897461 0.13479098159276753 0.09925699224575668
      vertex 0.1132349967956543 0.07589498115891503 0.09601091369590975
    endloop
  endfacet
  facet normal -0.2476525453534643 -0.13938934441267298 0.958769433932974
    outer loop
      vertex 0.06569480895996094 0.06899498200571133 0.08272801748356073
      vertex 0.1132349967956543 0.07589498115891503 0.09601091369590975
      vertex 0.09265279769897461 0.13479098159276753 0.09925699224575668
    endloop
  endfacet
  facet normal -0.22811855185449234 -0.14827394833510624 0.962276863768909
    outer loop
      vertex 0.06569480895996094 0.06899498200571133 0.08272801748356073
      vertex 0.09265279769897461 0.13479098159276753 0.09925699224575668
      vertex 0.03971290588378906 0.1347909836374221 0.08670699586971908
    endloop
  endfacet
  facet normal -0.22810895779790177 0.1485507803466358 0.9622364413338129
    outer loop
      vertex 0.0656280517578125 0.20058598167429742 0.08269299139133413
      vertex 0.03971290588378906 0.1347909836374221 0.08670699586971908
      vertex 0.09265279769897461 0.13479098159276753 0.09925699224575668
    endloop
  endfacet
  facet normal -0.2464352677330527 0.14019978577970452 0.958964899714616
    outer loop
      vertex 0.0656280517578125 0.20058598167429742 0.08269299139133413
      vertex 0.09265279769897461 0.13479098159276753 0.09925699224575668
      vertex 0.11296319961547852 0.19368598193617292 0.09586597439041156
    endloop
  endfacet
  facet normal 0.9868782037161873 -0.06012362535075319 -0.14985513239323422
    outer loop
      vertex 0.2832012176513672 0.050245988488421545 0.05127297445093282
      vertex 0.27918291091918945 0.04372899187737682 0.027424916595965465
      vertex 0.28465795516967773 0.1347909933737354 0.026945948506437833
    endloop
  endfacet
  facet normal 0.9867602379042573 -0.06032174246171087 -0.15055072327131758
    outer loop
      vertex 0.2832012176513672 0.050245988488421545 0.05127297445093282
      vertex 0.28465795516967773 0.1347909933737354 0.026945948506437833
      vertex 0.28829097747802734 0.13479098949425797 0.05075800409420639
    endloop
  endfacet
  facet normal 0.9867171505549703 0.06103875682021054 -0.1505441296315576
    outer loop
      vertex 0.28313398361206055 0.21933499289183453 0.05123604711927565
      vertex 0.28829097747802734 0.13479098949425797 0.05075800409420639
      vertex 0.28465795516967773 0.1347909933737354 0.026945948506437833
    endloop
  endfacet
  facet normal 0.9872531552650079 0.0601337598941431 -0.14736057254326781
    outer loop
      vertex 0.28313398361206055 0.21933499289183453 0.05123604711927565
      vertex 0.28465795516967773 0.1347909933737354 0.026945948506437833
      vertex 0.27918291091918945 0.22585198981696347 0.027424946267576855
    endloop
  endfacet
  facet normal 0.9821006254057609 0.059988021642889 -0.17854914963949198
    outer loop
      vertex 0.2739691734313965 0.23100699876796443 0.00047899850666488497
      vertex 0.27918291091918945 0.22585198981696347 0.027424946267576855
      vertex 0.28465795516967773 0.1347909933737354 0.026945948506437833
    endloop
  endfacet
  facet normal 0.9802101184849039 0.056721755242411964 -0.18965960587861175
    outer loop
      vertex 0.2739691734313965 0.23100699876796443 0.00047899850666488497
      vertex 0.28465795516967773 0.1347909933737354 0.026945948506437833
      vertex 0.27944421768188477 0.13479099776378894 -9.433120951030105e-11
    endloop
  endfacet
  facet normal 0.9802101511778154 -0.056721107321867394 -0.1896596306865156
    outer loop
      vertex 0.2739691734313965 0.038573999157063554 0.00047896715534045953
      vertex 0.27944421768188477 0.13479099776378894 -9.433120951030105e-11
      vertex 0.28465795516967773 0.1347909933737354 0.026945948506437833
    endloop
  endfacet
  facet normal 0.982100639270916 -0.05998730307780982 -0.17854931479316563
    outer loop
      vertex 0.2739691734313965 0.038573999157063554 0.00047896715534045953
      vertex 0.28465795516967773 0.1347909933737354 0.026945948506437833
      vertex 0.27918291091918945 0.04372899187737682 0.027424916595965465
    endloop
  endfacet
  facet normal 0.06010448244291961 -0.9242359510654554 0.3770614776775821
    outer loop
      vertex 0.2266831398010254 0.01864098952303464 0.058341960962895456
      vertex 0.2178797721862793 0.008656999214741584 0.03527293525029718
      vertex 0.2627577781677246 0.008960000470934981 0.02886197891691089
    endloop
  endfacet
  facet normal 0.030969723734896405 -0.937776410231632 0.34585586683596686
    outer loop
      vertex 0.2266831398010254 0.01864098952303464 0.058341960962895456
      vertex 0.2627577781677246 0.008960000470934981 0.02886197891691089
      vertex 0.26793384552001953 0.01796599017267564 0.052817921584430216
    endloop
  endfacet
  facet normal 0.9028393383081398 -0.42863714041291356 -0.03393126967798908
    outer loop
      vertex 0.2832012176513672 0.050245988488421545 0.05127297445093282
      vertex 0.26793384552001953 0.01796599017267564 0.052817921584430216
      vertex 0.2627577781677246 0.008960000470934981 0.02886197891691089
    endloop
  endfacet
  facet normal 0.9030617085137863 -0.42806734304497995 -0.03518380926751476
    outer loop
      vertex 0.2832012176513672 0.050245988488421545 0.05127297445093282
      vertex 0.2627577781677246 0.008960000470934981 0.02886197891691089
      vertex 0.27918291091918945 0.04372899187737682 0.027424916595965465
    endloop
  endfacet
  facet normal 0.8988794214649296 -0.42843822007466575 -0.09195910637955293
    outer loop
      vertex 0.2739691734313965 0.038573999157063554 0.00047896715534045953
      vertex 0.27918291091918945 0.04372899187737682 0.027424916595965465
      vertex 0.2627577781677246 0.008960000470934981 0.02886197891691089
    endloop
  endfacet
  facet normal 0.9098172703046531 -0.4094320371066816 -0.06780812374681046
    outer loop
      vertex 0.2739691734313965 0.038573999157063554 0.00047896715534045953
      vertex 0.2627577781677246 0.008960000470934981 0.02886197891691089
      vertex 0.25754404067993164 0.001836996490608478 0.0019159099463665896
    endloop
  endfacet
  facet normal 0.0782734838693672 -0.9674638013075746 0.24059728777035178
    outer loop
      vertex 0.21166181564331055 -4.988647550607794e-9 0.00945601642045757
      vertex 0.25754404067993164 0.001836996490608478 0.0019159099463665896
      vertex 0.2627577781677246 0.008960000470934981 0.02886197891691089
    endloop
  endfacet
  facet normal 0.05022047281861381 -0.9505030206108965 0.3066299266533462
    outer loop
      vertex 0.21166181564331055 -4.988647550607794e-9 0.00945601642045757
      vertex 0.2627577781677246 0.008960000470934981 0.02886197891691089
      vertex 0.2178797721862793 0.008656999214741584 0.03527293525029718
    endloop
  endfacet
  facet normal -0.19068660839983853 -0.701931436132107 0.6862440355635046
    outer loop
      vertex 0.06569480895996094 0.06899498200571133 0.08272801748356073
      vertex 0.04169321060180664 0.058770985176576696 0.06560097876951931
      vertex 0.12704801559448242 0.020992990054665137 0.05067692323725903
    endloop
  endfacet
  facet normal -0.24157471252483376 -0.7331978228222502 0.6356591939689505
    outer loop
      vertex 0.06569480895996094 0.06899498200571133 0.08272801748356073
      vertex 0.12704801559448242 0.020992990054665137 0.05067692323725903
      vertex 0.14364385604858398 0.03296498946240703 0.07079301596228271
    endloop
  endfacet
  facet normal -0.06182691613959413 -0.8344396135848553 0.5476202732925662
    outer loop
      vertex 0.2266831398010254 0.01864098952303464 0.058341960962895456
      vertex 0.14364385604858398 0.03296498946240703 0.07079301596228271
      vertex 0.12704801559448242 0.020992990054665137 0.05067692323725903
    endloop
  endfacet
  facet normal -0.05327936288802936 -0.9088634543752089 0.41367684343145017
    outer loop
      vertex 0.2266831398010254 0.01864098952303464 0.058341960962895456
      vertex 0.12704801559448242 0.020992990054665137 0.05067692323725903
      vertex 0.2178797721862793 0.008656999214741584 0.03527293525029718
    endloop
  endfacet
  facet normal -0.07132598457791124 -0.9403968128799576 0.33251532032255243
    outer loop
      vertex 0.21166181564331055 -4.988647550607794e-9 0.00945601642045757
      vertex 0.2178797721862793 0.008656999214741584 0.03527293525029718
      vertex 0.12704801559448242 0.020992990054665137 0.05067692323725903
    endloop
  endfacet
  facet normal 0.017165078829465847 -0.8762755354698313 0.48150446104458733
    outer loop
      vertex 0.21166181564331055 -4.988647550607794e-9 0.00945601642045757
      vertex 0.12704801559448242 0.020992990054665137 0.05067692323725903
      vertex 0.11782121658325195 0.008484996256415384 0.028242924998885588
    endloop
  endfacet
  facet normal -0.23637687669847035 -0.804069998895757 0.5455248931424245
    outer loop
      vertex 0.029456138610839844 0.04688398926902179 0.04655192840911382
      vertex 0.11782121658325195 0.008484996256415384 0.028242924998885588
      vertex 0.12704801559448242 0.020992990054665137 0.05067692323725903
    endloop
  endfacet
  facet normal -0.2262027672499779 -0.7544732159106017 0.6161188802187179
    outer loop
      vertex 0.029456138610839844 0.04688398926902179 0.04655192840911382
      vertex 0.12704801559448242 0.020992990054665137 0.05067692323725903
      vertex 0.04169321060180664 0.058770985176576696 0.06560097876951931
    endloop
  endfacet
  facet normal -0.4943017967593757 0.2396943412600392 0.8355910222641032
    outer loop
      vertex 0.0656280517578125 0.20058598167429742 0.08269299139133413
      vertex 0.04169321060180664 0.2108109899068013 0.06560100353998743
      vertex 0.013239860534667969 0.13479098626550343 0.07057595243557602
    endloop
  endfacet
  facet normal -0.5039639404055946 0.24895739727783822 0.8270674465311225
    outer loop
      vertex 0.0656280517578125 0.20058598167429742 0.08269299139133413
      vertex 0.013239860534667969 0.13479098626550343 0.07057595243557602
      vertex 0.03971290588378906 0.1347909836374221 0.08670699586971908
    endloop
  endfacet
  facet normal -0.5039555370206812 -0.24902048464926343 0.8270535744020716
    outer loop
      vertex 0.06569480895996094 0.06899498200571133 0.08272801748356073
      vertex 0.03971290588378906 0.1347909836374221 0.08670699586971908
      vertex 0.013239860534667969 0.13479098626550343 0.07057595243557602
    endloop
  endfacet
  facet normal -0.49421304565844715 -0.2396653821460465 0.8356518234897781
    outer loop
      vertex 0.06569480895996094 0.06899498200571133 0.08272801748356073
      vertex 0.013239860534667969 0.13479098626550343 0.07057595243557602
      vertex 0.04169321060180664 0.058770985176576696 0.06560097876951931
    endloop
  endfacet
  facet normal -0.7031729520123002 -0.30521495369630064 0.6421772587054702
    outer loop
      vertex 0.029456138610839844 0.04688398926902179 0.04655192840911382
      vertex 0.04169321060180664 0.058770985176576696 0.06560097876951931
      vertex 0.013239860534667969 0.13479098626550343 0.07057595243557602
    endloop
  endfacet
  facet normal -0.768088211982534 -0.296761435245853 0.567426778680999
    outer loop
      vertex 0.029456138610839844 0.04688398926902179 0.04655192840911382
      vertex 0.013239860534667969 0.13479098626550343 0.07057595243557602
      vertex 0 0.1347909891853564 0.052654027844511564
    endloop
  endfacet
  facet normal -0.7680874444467491 0.296764321076993 0.5674263083599256
    outer loop
      vertex 0.029456138610839844 0.22269699364352588 0.046551957052696435
      vertex 0 0.1347909891853564 0.052654027844511564
      vertex 0.013239860534667969 0.13479098626550343 0.07057595243557602
    endloop
  endfacet
  facet normal -0.703180719185679 0.30521702048117394 0.6421677713604955
    outer loop
      vertex 0.029456138610839844 0.22269699364352588 0.046551957052696435
      vertex 0.013239860534667969 0.13479098626550343 0.07057595243557602
      vertex 0.04169321060180664 0.2108109899068013 0.06560100353998743
    endloop
  endfacet
endsolid AudiOptimised02
